Coordinates
version=1
nRows=65
nColumns=12
inDegrees=yes

Units are S.I. units (second, meters, Newtons, ...)
Angles are in degrees

endheader
time	SC_y	SC_z	SC_x	AC_y	AC_z	AC_x	GH_y	GH_z	GH_yy	EL_x	PS_y
       0.0              -34.07          2.705          83.81           51.3          7.972          8.098          177.7          7.218          58.31          26.75          67.63
   0.01142              -34.06          2.708          83.81           51.3          7.971          8.096          177.7          7.225          58.29          26.76          67.63
   0.02285              -34.06          2.711           83.8          51.29           7.97          8.095          177.6          7.232          58.27          26.77          67.64
   0.03427              -34.06          2.715           83.8          51.29          7.968          8.094          177.6           7.24          58.26          26.78          67.65
   0.04569              -34.05          2.719          83.79          51.29          7.966          8.092          177.6          7.249          58.24          26.78          67.66
   0.05712              -34.05          2.723          83.78          51.29          7.965          8.091          177.5          7.258          58.21          26.79          67.67
   0.06854              -34.04          2.727          83.78          51.28          7.963          8.089          177.5          7.267          58.19           26.8          67.68
   0.07996              -34.04          2.732          83.77          51.28          7.961          8.087          177.5          7.278          58.17          26.81          67.69
   0.09139              -34.04          2.737          83.76          51.28          7.958          8.085          177.4          7.289          58.14          26.82           67.7
    0.1028              -34.03          2.743          83.75          51.27          7.956          8.083          177.4          7.301          58.11          26.84          67.71
    0.1142              -34.02          2.749          83.74          51.27          7.953          8.081          177.3          7.313          58.08          26.85          67.72
    0.1257              -34.02          2.755          83.74          51.26          7.951          8.078          177.2          7.327          58.05          26.86          67.73
    0.1371              -34.01          2.762          83.72          51.26          7.948          8.075          177.2          7.342          58.02          26.88          67.75
    0.1485              -34.01          2.769          83.71          51.25          7.945          8.073          177.1          7.358          57.98          26.89          67.76
    0.1599               -34.0          2.777           83.7          51.25          7.941           8.07          177.1          7.375          57.94          26.91          67.78
    0.1714              -33.99          2.786          83.69          51.24          7.937          8.066          177.0          7.394           57.9          26.93           67.8
    0.1828              -33.98          2.795          83.67          51.24          7.933          8.063          176.9          7.415          57.85          26.95          67.82
    0.1942              -33.97          2.805          83.66          51.23          7.929          8.059          176.8          7.437           57.8          26.97          67.84
    0.2056              -33.96          2.817          83.64          51.22          7.924          8.054          176.7          7.461          57.74           27.0          67.86
     0.217              -33.95          2.829          83.62          51.21          7.919           8.05          176.6          7.488          57.68          27.02          67.89
    0.2285              -33.94          2.842           83.6           51.2          7.913          8.044          176.5          7.517          57.61          27.05          67.92
    0.2399              -33.92          2.857          83.58          51.19          7.907          8.039          176.3          7.549          57.54          27.09          67.95
    0.2513              -33.91          2.874          83.55          51.18            7.9          8.032          176.2          7.584          57.45          27.12          67.98
    0.2627              -33.89          2.892          83.52          51.17          7.892          8.025          176.0          7.624          57.36          27.16          68.02
    0.2742              -33.87          2.912          83.49          51.15          7.883          8.017          175.9          7.668          57.26          27.21          68.07
    0.2856              -33.85          2.934          83.46          51.14          7.874          8.009          175.7          7.716          57.15          27.25          68.11
     0.297              -33.82          2.959          83.42          51.12          7.863          7.999          175.4          7.771          57.02          27.31          68.17
    0.3084               -33.8          2.988          83.37           51.1          7.851          7.988          175.2          7.832          56.88          27.37          68.23
    0.3199              -33.77           3.02          83.32          51.08          7.837          7.976          174.9          7.902          56.72          27.44          68.29
    0.3313              -33.73          3.056          83.27          51.05          7.821          7.962          174.6          7.981          56.53          27.52          68.37
    0.3427              -33.69          3.097           83.2          51.02          7.803          7.946          174.2          8.071          56.32          27.61          68.46
    0.3541              -33.65          3.145          83.13          50.99          7.783          7.927          173.8          8.174          56.08          27.71          68.56
    0.3656              -33.59            3.2          83.05          50.95          7.759          7.906          173.3          8.293          55.81          27.83          68.67
     0.377              -33.53          3.264          82.95          50.91          7.732          7.881          172.7          8.432          55.48          27.97          68.81
    0.3884              -33.46          3.338          82.83          50.86            7.7          7.852          172.1          8.594          55.11          28.14          68.97
    0.3998              -33.38          3.426          82.69          50.79          7.662          7.818          171.3          8.785          54.66          28.33          69.15
    0.4112              -33.28          3.531          82.53          50.72          7.617          7.778          170.3          9.012          54.13          28.56          69.38
    0.4227              -33.16          3.656          82.34          50.63          7.563          7.729          169.2          9.285           53.5          28.83          69.64
    0.4341              -33.01          3.808           82.1          50.53          7.498          7.671          167.9          9.614          52.73          29.16          69.96
    0.4455              -32.84          3.993          81.81           50.4          7.418          7.599          166.2          10.02           51.8          29.57          70.35
    0.4569              -32.62          4.222          81.46          50.24           7.32           7.51          164.2          10.51          50.64          30.07          70.84
    0.4684              -32.35          4.507          81.02          50.04          7.197            7.4          161.6          11.13           49.2          30.69          71.44
    0.4798               -32.0          4.867          80.46          49.79          7.042          7.261          158.4          11.91          47.39          31.47           72.2
    0.4912              -31.57          5.323          79.75          49.47          6.846          7.084          154.4           12.9          45.08          32.47          73.17
    0.5026              -31.01          5.908          78.85          49.06          6.594          6.858          149.2          14.17          42.13          33.75           74.4
    0.5141              -30.29          6.658          77.68          48.54          6.272          6.567          142.5           15.8          38.34          35.38          75.99
    0.5255              -29.38          7.616           76.2          47.87          5.859          6.196          133.9          17.88           33.5          37.48          78.02
    0.5369              -28.23          8.821          74.33          47.02          5.341           5.73          123.2           20.5          27.42          40.11          80.57
    0.5483              -26.82          10.29          72.05           46.0          4.709          5.162          110.1          23.69          20.01          43.31          83.67
    0.5598               -25.2          11.99          69.41          44.81          3.977          4.503          94.96          27.39          11.41          47.03          87.28
    0.5712              -23.44          13.83          66.55          43.52          3.184           3.79          78.54          31.39          2.105          51.05          91.17
    0.5826              -21.68          15.68           63.7          42.23          2.391          3.076          62.13          35.39         -7.201          55.08          95.07
     0.594              -20.05          17.38          61.06          41.04          1.659          2.417          46.96          39.09          -15.8          58.79          98.67
    0.6054              -18.65          18.85          58.78          40.02          1.027          1.849          33.88          42.28         -23.21           62.0          101.8
    0.6169               -17.5          20.05          56.91          39.17         0.5091          1.383          23.15          44.89         -29.29          64.63          104.3
    0.6283              -16.59          21.01          55.42           38.5         0.0968          1.012          14.61          46.97         -34.13          66.72          106.4
    0.6397              -15.87          21.76          54.26          37.98        -0.2259         0.7214          7.929           48.6         -37.92          68.36          107.9
    0.6511              -15.31          22.34          53.35          37.57        -0.4774         0.4951          2.721          49.87         -40.87          69.63          109.2
    0.6626              -14.88           22.8          52.65          37.25        -0.6739         0.3184         -1.348          50.86         -43.18          70.63          110.1
     0.674              -14.53          23.16          52.09           37.0        -0.8285         0.1793         -4.549          51.64         -44.99          71.42          110.9
    0.6854              -14.26          23.45          51.65           36.8        -0.9512        0.06889         -7.089          52.26         -46.43          72.04          111.5
    0.6968              -14.04          23.67          51.29          36.64          -1.05       -0.01964         -9.127          52.76         -47.59          72.54          112.0
    0.7083              -13.86          23.86           51.0          36.51         -1.129       -0.09137         -10.78          53.16         -48.53          72.94          112.4
    0.7197              -13.72          24.01          50.77          36.41         -1.195        -0.1501         -12.13          53.49         -49.29          73.27          112.7
    0.7311               -13.6          24.14          50.58          36.32         -1.249        -0.1986         -13.25          53.76         -49.92          73.55          113.0
